<?xml version="1.0" standalone="no"?>
<!DOCTYPE svg PUBLIC "-//W3C//DTD SVG 20010904//EN"
 "http://www.w3.org/TR/2001/REC-SVG-20010904/DTD/svg10.dtd">
<svg version="1.0" xmlns="http://www.w3.org/2000/svg"
 width="1200.000000pt" height="1200.000000pt" viewBox="0 0 1200.000000 1200.000000"
 preserveAspectRatio="xMidYMid meet">
<metadata>
Created by potrace 1.14, written by Peter Selinger 2001-2017
</metadata>
<g transform="translate(0.000000,1200.000000) scale(0.100000,-0.100000)"
fill="#000000" stroke="none">
<path d="M7380 10073 c-27 -14 -97 -42 -105 -42 -15 0 -125 -65 -125 -74 0 -6
-3 -8 -6 -4 -5 5 -59 -28 -144 -88 -8 -5 -79 -75 -158 -155 -78 -80 -148 -143
-155 -142 -75 21 -108 17 -183 -23 -38 -20 -74 -43 -80 -51 -6 -8 -14 -14 -18
-14 -7 0 -12 -5 -109 -98 -56 -54 -70 -62 -94 -57 -60 11 -152 18 -248 18 -98
1 -240 -9 -253 -17 -4 -2 -29 -6 -57 -10 -27 -3 -61 -8 -75 -11 -14 -3 -39 -8
-55 -10 -40 -6 -207 -54 -220 -64 -5 -4 -31 -15 -57 -25 -27 -10 -48 -23 -48
-28 0 -6 -3 -8 -6 -5 -4 4 -20 -3 -36 -14 -26 -19 -31 -19 -46 -7 -9 8 -32 28
-51 44 -19 16 -39 34 -45 39 -44 40 -175 104 -231 112 -16 3 -34 9 -39 14 -6
5 -29 9 -53 9 -41 0 -46 -3 -95 -64 l-53 -64 -55 28 c-45 22 -88 38 -120 44
-3 1 -10 4 -16 8 -6 4 -26 10 -44 13 -18 3 -36 8 -40 10 -4 2 -22 7 -41 10
-19 3 -63 13 -99 21 -123 29 -155 34 -282 43 -67 4 -102 3 -113 -5 -30 -22
-43 -125 -28 -238 28 -226 33 -243 92 -356 43 -83 74 -125 125 -172 22 -21 38
-38 36 -39 -3 -1 -21 -2 -40 -3 -41 -3 -100 -31 -101 -49 -8 -86 53 -245 121
-317 21 -22 35 -40 31 -40 -3 0 -1 -4 5 -8 6 -4 27 -26 48 -50 l38 -42 -25
-53 c-27 -54 -95 -229 -101 -256 -2 -9 -6 -23 -9 -31 -24 -59 -55 -150 -51
-150 2 0 0 -9 -6 -21 -6 -11 -13 -28 -16 -37 -2 -9 -15 -56 -28 -104 -13 -49
-21 -88 -18 -88 2 0 -1 -7 -8 -15 -7 -8 -10 -15 -7 -15 3 0 -1 -22 -8 -50 -7
-27 -11 -50 -8 -50 3 0 0 -6 -6 -14 -6 -8 -11 -18 -9 -22 1 -5 -4 -44 -12 -88
-14 -75 -16 -79 -56 -107 -55 -38 -76 -58 -69 -70 4 -5 2 -9 -3 -9 -9 0 -18
-24 -22 -55 -1 -5 -5 -14 -9 -20 -13 -17 -13 -86 -1 -116 7 -15 21 -31 31 -34
18 -6 16 -11 -16 -74 -19 -37 -35 -72 -35 -78 0 -6 -4 -13 -8 -15 -29 -11
-153 -427 -167 -558 -3 -36 -8 -78 -10 -95 -24 -187 -16 -517 16 -675 6 -30
13 -68 15 -83 11 -59 67 -215 106 -292 46 -92 173 -285 300 -454 47 -64 85
-117 84 -119 -4 -3 -37 -10 -86 -18 -19 -3 -61 -12 -93 -20 -89 -23 -158 -28
-347 -27 -181 0 -301 6 -316 15 -5 3 -38 9 -74 13 -36 4 -81 8 -101 11 -19 2
-80 15 -135 29 -54 15 -108 27 -119 29 -48 5 -109 -47 -118 -100 -1 -11 -5
-23 -8 -29 -17 -28 2 -175 22 -175 5 0 9 -5 9 -11 0 -19 72 -77 143 -114 37
-20 67 -34 67 -31 0 3 11 1 24 -4 13 -5 42 -11 65 -15 22 -3 55 -8 73 -12 18
-3 146 -7 283 -8 385 -4 492 -15 562 -57 18 -10 35 -27 38 -38 12 -37 -54
-131 -125 -180 -19 -14 -41 -30 -48 -37 -7 -7 -17 -13 -22 -13 -15 0 -231
-220 -290 -295 -102 -130 -124 -178 -117 -259 4 -45 11 -64 32 -86 38 -40 163
-71 193 -47 6 5 12 7 12 3 0 -16 123 69 131 91 2 6 31 40 64 75 33 35 101 109
150 163 103 113 215 225 226 225 4 0 14 6 21 13 20 17 44 32 118 69 36 18 67
36 68 41 2 4 11 7 21 7 9 0 21 4 26 9 28 27 247 95 375 117 22 4 167 46 210
61 24 8 90 12 89 5 -1 -4 0 -9 1 -12 1 -3 4 -18 6 -35 6 -40 133 -299 190
-388 48 -74 154 -185 202 -211 124 -69 131 -71 252 -70 69 1 136 7 168 16 35
10 52 12 52 4 0 -42 82 -166 110 -166 5 0 10 -3 10 -8 0 -4 12 -12 28 -19 133
-57 387 -26 582 70 74 37 86 46 96 77 10 33 45 117 63 150 9 17 24 78 20 82
-1 2 3 13 9 25 10 18 21 22 64 22 61 0 83 4 150 27 86 28 198 104 198 133 0 7
4 10 9 6 5 -3 12 3 15 12 3 10 16 29 29 43 34 37 88 133 129 230 40 95 44 108
53 165 10 72 7 70 102 73 49 1 117 5 153 7 36 2 263 7 505 10 242 4 557 9 700
12 568 13 1642 6 1722 -11 20 -4 130 -8 181 -7 35 1 55 55 36 100 -8 18 -14
42 -14 52 0 11 -17 38 -38 62 -21 23 -52 60 -68 82 -16 22 -38 49 -49 61 -49
51 -93 103 -135 158 -44 58 -97 106 -122 110 -7 1 -19 5 -26 10 -16 10 -182
55 -182 50 0 -3 -8 -1 -17 5 -10 5 -36 11 -58 15 -22 3 -53 9 -69 14 l-29 8
51 22 c28 12 56 22 62 22 11 0 94 81 138 133 24 29 49 86 56 127 2 14 9 45 16
70 7 25 13 118 13 215 2 155 0 176 -22 240 -42 123 -80 187 -170 287 -34 38
-116 85 -159 91 -12 2 -27 8 -33 14 -24 24 -103 -29 -137 -92 -9 -16 -22 -47
-28 -68 -15 -47 -12 -219 6 -302 21 -102 93 -223 159 -265 l23 -16 -61 -38
c-69 -42 -177 -144 -202 -191 -21 -38 -22 -140 -2 -179 l15 -28 -59 6 c-153
16 -247 20 -473 19 -294 -1 -851 -12 -900 -17 -19 -3 -75 -8 -124 -11 -49 -4
-101 -8 -115 -10 -28 -4 -95 -12 -163 -20 -43 -5 -74 -10 -125 -20 -16 -3 -37
-8 -48 -10 -54 -10 -81 -16 -94 -21 -8 -2 -37 -7 -65 -10 -28 -3 -57 -10 -63
-16 -7 -6 -13 -8 -13 -4 0 3 -10 2 -22 -3 -22 -8 -23 -7 -24 60 -1 38 2 67 6
64 24 -15 260 215 260 254 0 6 4 11 9 11 5 0 24 28 42 63 l32 64 53 -52 c43
-41 64 -54 109 -65 53 -13 56 -12 80 10 21 20 89 128 104 165 2 6 7 12 10 15
34 28 236 516 255 616 2 11 9 39 16 64 13 49 15 56 31 145 6 33 21 105 34 160
13 55 26 112 29 128 2 15 7 35 10 45 2 9 7 37 10 62 4 25 10 69 15 99 14 87 5
371 -13 399 -3 6 -8 30 -11 53 -3 24 -8 52 -11 63 -6 17 -66 101 -123 171 -57
69 -206 207 -252 234 l-50 28 66 32 c80 39 80 51 -1 127 -55 52 -63 64 -41 64
14 0 53 41 49 53 -1 4 3 7 9 7 5 0 7 5 4 10 -3 6 -1 10 5 10 6 0 14 10 19 22
15 40 -49 88 -184 138 -21 7 -31 18 -32 33 -3 40 -12 141 -18 191 -8 68 -71
319 -97 386 -41 102 -104 214 -167 295 -65 83 -63 78 -41 130 11 25 22 57 24
70 2 13 9 32 14 42 14 26 35 160 34 212 0 24 -6 56 -12 71 -13 31 -40 36 -48
8 -2 -10 -10 -18 -17 -18 -11 0 -76 -66 -118 -121 l-18 -24 5 35 c3 19 11 58
17 85 16 70 19 121 25 360 4 166 1 225 -11 280 -8 39 -17 79 -19 90 -20 102
-38 118 -96 88z"/>
</g>
</svg>
